# xmcd CD database file
#
# Track frame offsets:
#	150
#	17284
#	32801
#	75165
#	99667
#	120686
#	136363
#	176264
#	196391
#	215618
#	236572
#	253316
#
# Disc length: 3703 seconds
#
# Revision: 0
# Processed by: cddbd v1.5.2PL0 Copyright (c) Steve Scherf et al.
# Submitted via: CDex 1.51
#
DISCID=990e750c
DTITLE=Various Artist - Jazz - L'album ideal - CD1
DYEAR=1900
DGENRE=Jazz
TTITLE0=01 -  Duke Ellington - CountBasie - Take The "A" Train
TTITLE1=02 Billie Holiday - I'm A Fool To Want You
TTITLE2=03 Miles Davis - So what
TTITLE3=04 Dave Brubeck - Take five
TTITLE4=05 Stan Getz - Aguas De Marco
TTITLE5=06 Chet Baker - Over The Rainbow
TTITLE6=07 Louis armstrong - St. Louis Blues
TTITLE7=08 George Benson - Clockwise
TTITLE8=09 Nina Simone - My Man's Gone Now
TTITLE9=10 Sonny Rollins - Just Friends
TTITLE10=11 Charlie Parker - Laura
TTITLE11=12 Dave Brubeck - I'll Remember April
EXTD=
EXTT0=
EXTT1=
EXTT2=
EXTT3=
EXTT4=
EXTT5=
EXTT6=
EXTT7=
EXTT8=
EXTT9=
EXTT10=
EXTT11=
PLAYORDER=
